<svg height="640pt" viewBox="-20 -20 640 640" width="640pt" xmlns="http://www.w3.org/2000/svg"><path d="m260 140v18.339844c0 80.972656-6.6875 161.792968-20 241.660156h-200c-13.3125-79.859375-20-160.6875-20-241.660156v-18.339844" fill="#af4a47"/><path d="m20 158.339844c0 69.820312 5 139.53125 14.914062 208.609375 9.765626 1.921875 19.796876 3.050781 30.085938 3.050781 91.128906 0 165-78.351562 165-175 0-19.226562-3.03125-37.691406-8.441406-55h-201.558594zm0 0" fill="#e4725f"/><path d="m580 140v18.339844c0 80.972656-6.6875 161.792968-20 241.660156h-200c-13.3125-79.859375-20-160.6875-20-241.660156v-18.339844" fill="#d1a339"/><path d="m340 158.339844c0 69.820312 5 139.53125 14.914062 208.609375 9.765626 1.921875 19.796876 3.050781 30.085938 3.050781 91.128906 0 165-78.351562 165-175 0-19.226562-3.03125-37.691406-8.441406-55h-201.558594zm0 0" fill="#f0d365"/><path d="m418.339844 300c-9.519532-56.75-58.882813-100-118.339844-100s-108.820312 43.25-118.339844 100" fill="#b8cbd9"/><path d="m300 200c-49.96875 0-92.710938 30.601562-110.761719 74.039062 14.179688 3.804688 29.589844 5.960938 45.761719 5.960938 59.25 0 108.757812-28.0625 121.640625-65.6875-16.890625-9.074219-36.132813-14.3125-56.640625-14.3125zm0 0" fill="#e8eff4"/><path d="m576.679688 100c-9.523438-56.75-58.882813-100-118.339844-100-59.457032 0-108.816406 43.25-118.339844 100" fill="#b8cbd9"/><path d="m458.339844 0c-49.972656 0-92.710938 30.601562-110.761719 74.039062 14.1875 3.804688 29.589844 5.960938 45.761719 5.960938 59.246094 0 108.761718-28.0625 121.640625-65.6875-16.890625-9.074219-36.132813-14.3125-56.640625-14.3125zm0 0" fill="#e8eff4"/><path d="m256.679688 100c-9.523438-56.75-58.882813-100-118.339844-100-59.457032 0-108.816406 43.25-118.339844 100" fill="#b8cbd9"/><path d="m138.339844 0c-49.972656 0-92.710938 30.601562-110.761719 74.039062 14.1875 3.804688 29.589844 5.960938 45.761719 5.960938 59.246094 0 108.761718-28.0625 121.640625-65.6875-16.890625-9.074219-36.132813-14.3125-56.640625-14.3125zm0 0" fill="#e8eff4"/><path d="m80 140v40h120v-40" fill="#b8cbd9"/><path d="m0 100h280v40h-280zm0 0" fill="#8892a0"/><path d="m400 140v40h120v-40" fill="#b8cbd9"/><path d="m320 100h280v40h-280zm0 0" fill="#8892a0"/><path d="m420 340v18.339844c0 80.972656-6.6875 161.792968-20 241.660156h-200c-13.3125-79.859375-20-160.6875-20-241.660156v-18.339844" fill="#568e53"/><path d="m180 358.339844c0 69.820312 5 139.53125 14.914062 208.609375 9.765626 1.921875 19.796876 3.050781 30.085938 3.050781 91.128906 0 165-78.351562 165-175 0-19.226562-3.03125-37.691406-8.441406-55h-201.558594zm0 0" fill="#7ecb92"/><path d="m240 340v40h120v-40" fill="#b8cbd9"/><path d="m160 300h280v40h-280zm0 0" fill="#8892a0"/><g fill="#fff"><path d="m332.929688 467.070312-32.929688-32.929687-22.929688 22.929687-14.140624-14.140624 30-30c3.910156-3.910157 10.230468-3.910157 14.140624 0l40 40zm0 0"/><path d="m280 510h-60c-4.039062 0-7.691406-2.429688-9.238281-6.171875-1.550781-3.742187-.691407-8.039063 2.167969-10.898437l40-40 14.140624 14.140624-22.929687 22.929688h35.859375zm0 0"/><path d="m380 510h-80v-20h55.859375l-12.929687-12.929688 14.140624-14.140624 30 30c2.859376 2.859374 3.71875 7.15625 2.167969 10.898437-1.546875 3.742187-5.199219 6.171875-9.238281 6.171875zm0 0"/><path d="m492.929688 267.070312-32.929688-32.929687-22.929688 22.929687-14.140624-14.140624 30-30c3.910156-3.910157 10.230468-3.910157 14.140624 0l40 40zm0 0"/><path d="m540 310h-70v-20h45.859375l-12.929687-12.929688 14.140624-14.140624 30 30c2.859376 2.859374 3.71875 7.15625 2.167969 10.898437-1.546875 3.730469-5.199219 6.171875-9.238281 6.171875zm0 0"/><path d="m172.929688 267.070312-32.929688-32.929687-22.929688 22.929687-14.140624-14.140624 30-30c3.910156-3.910157 10.230468-3.910157 14.140624 0l40 40zm0 0"/><path d="m130 310h-70c-4.039062 0-7.691406-2.441406-9.238281-6.171875-1.550781-3.742187-.691407-8.039063 2.167969-10.898437l40-40 14.140624 14.140624-22.929687 22.929688h45.859375zm0 0"/></g></svg>