<svg width="512" height="512" xmlns="http://www.w3.org/2000/svg">

 <g>
  <title>background</title>
  <rect fill="none" id="canvas_background" height="402" width="582" y="-1" x="-1"/>
 </g>
 <g>
  <title>Layer 1</title>
  <path id="svg_1" fill="#FFD782" d="m459.191,106.351l-406.382,0c-29.166,0 -52.809,23.643 -52.809,52.809l0,193.68c0,29.166 23.643,52.809 52.809,52.809l406.382,0c29.166,0 52.809,-23.643 52.809,-52.809l0,-193.68c0,-29.166 -23.644,-52.809 -52.809,-52.809z"/>
  <path id="svg_2" fill="#FFFFFF" d="m52.809,367.866c-8.285,0 -15.027,-6.74 -15.027,-15.027l0,-193.679c0,-8.285 6.741,-15.027 15.027,-15.027l406.383,0c8.285,0 15.026,6.741 15.026,15.027l0,193.68c0,8.286 -6.74,15.027 -15.026,15.027l-406.383,-0.001l0,0z"/>
  <g id="svg_3">
   <path id="svg_4" fill="#249ED9" d="m459.191,144.133l-406.382,0c-8.285,0 -15.027,6.741 -15.027,15.027l0,38.948l0,0l436.434,0l0,-38.948c0.001,-8.286 -6.74,-15.027 -15.025,-15.027z"/>
   <path id="svg_5" fill="#249ED9" d="m37.782,313.892l0,38.948c0,8.286 6.741,15.027 15.027,15.027l406.383,0c8.285,0 15.026,-6.74 15.026,-15.027l0,-38.948l-436.436,0l0,0z"/>
  </g>
  <g id="svg_6">
   <path id="svg_7" fill="#464655" d="m108.698,299.206l-13.181,0l-2.256,-15.081l-16.031,0l-2.256,15.081l-11.993,0l13.299,-83.121l19.118,0l13.3,83.121zm-29.805,-26.362l12.587,0l-6.293,-42.036l-6.294,42.036z"/>
   <path id="svg_8" fill="#464655" d="m158.333,235.201l0,2.969c0,8.55 -2.612,14.012 -8.431,16.743c7.006,2.731 9.737,9.025 9.737,17.812l0,6.77c0,12.824 -6.768,19.712 -19.83,19.712l-20.543,0l0,-83.121l19.712,0c13.536,-0.002 19.355,6.291 19.355,19.115zm-26.006,-7.243l0,21.968l5.106,0c4.869,0 7.837,-2.137 7.837,-8.788l0,-4.63c0,-5.937 -2.019,-8.55 -6.65,-8.55l-6.293,0zm0,33.843l0,25.53l7.481,0c4.394,0 6.768,-2.019 6.768,-8.193l0,-7.245c0,-7.717 -2.494,-10.093 -8.431,-10.093l-5.818,0l0,0.001z"/>
   <path id="svg_9" fill="#464655" d="m209.866,268.213l0,11.042c0,13.299 -6.65,20.899 -19.474,20.899c-12.824,0 -19.474,-7.6 -19.474,-20.899l0,-43.223c0,-13.299 6.65,-20.899 19.474,-20.899s19.474,7.6 19.474,20.899l0,8.075l-12.349,0l0,-8.906c0,-5.937 -2.612,-8.193 -6.768,-8.193c-4.156,0 -6.768,2.256 -6.768,8.193l0,44.886c0,5.937 2.612,8.074 6.768,8.074c4.156,0 6.768,-2.136 6.768,-8.074l0,-11.874l12.349,0l0,0z"/>
   <path id="svg_10" fill="#464655" d="m244.657,251.708l23.749,0l0,11.874l-23.749,0l0,-11.874z"/>
   <path id="svg_11" fill="#464655" d="m312.815,226.534c10.094,0 12.349,-4.869 14.369,-10.45l8.787,0l0,83.121l-13.062,0l0,-63.41l-10.094,0l0,-9.261z"/>
   <path id="svg_12" fill="#464655" d="m375.392,227.009c-4.157,0 -6.77,2.256 -6.77,8.193l0,8.906l-12.348,0l0,-8.075c0,-13.299 6.65,-20.899 19.474,-20.899s19.474,7.6 19.474,20.899c0,26.124 -26.006,35.861 -26.006,49.516c0,0.595 0,1.189 0.119,1.781l24.699,0l0,11.874l-37.76,0l0,-10.212c0,-24.461 25.885,-28.499 25.885,-52.485c0.002,-7.479 -2.611,-9.498 -6.767,-9.498z"/>
   <path id="svg_13" fill="#464655" d="m432.982,236.509c0,-7.481 -2.612,-9.5 -6.768,-9.5s-6.77,2.256 -6.77,8.193l0,5.343l-12.348,0l0,-4.512c0,-13.299 6.65,-20.899 19.474,-20.899s19.474,7.6 19.474,20.899l0,2.137c0,8.906 -2.85,14.487 -9.143,17.099c6.531,2.85 9.143,9.025 9.143,17.455l0,6.531c0,13.299 -6.65,20.899 -19.474,20.899s-19.474,-7.6 -19.474,-20.899l0,-6.887l12.348,0l0,7.718c0,5.937 2.613,8.193 6.77,8.193s6.768,-2.019 6.768,-9.381l0,-6.531c0,-7.717 -2.612,-10.568 -8.55,-10.568l-4.392,0l0,-11.874l5.105,0c4.869,0 7.837,-2.137 7.837,-8.788l0,-4.628z"/>
   <circle id="svg_14" fill="#464655" r="8.87" cy="171.262" cx="124.919"/>
   <circle id="svg_15" fill="#464655" r="8.87" cy="340.915" cx="124.919"/>
   <circle id="svg_16" fill="#464655" r="8.87" cy="171.262" cx="387.085"/>
   <circle id="svg_17" fill="#464655" r="8.87" cy="340.915" cx="387.085"/>
  </g>
  <path id="svg_18" opacity="0.1" d="m85.28,352.84l0,-193.68c0,-29.166 23.643,-52.809 52.809,-52.809l-85.28,0c-29.166,0 -52.809,23.643 -52.809,52.809l0,193.68c0,29.166 23.643,52.809 52.809,52.809l85.28,0c-29.166,-0.001 -52.809,-23.644 -52.809,-52.809z"/>
  <g id="svg_19"/>
  <g id="svg_20"/>
  <g id="svg_21"/>
  <g id="svg_22"/>
  <g id="svg_23"/>
  <g id="svg_24"/>
  <g id="svg_25"/>
  <g id="svg_26"/>
  <g id="svg_27"/>
  <g id="svg_28"/>
  <g id="svg_29"/>
  <g id="svg_30"/>
  <g id="svg_31"/>
  <g id="svg_32"/>
  <g id="svg_33"/>
  <rect id="svg_36" height="115.151517" width="435.757582" y="197.57576" x="37.515148" fill-opacity="null" stroke-opacity="null" stroke-width="0" stroke="#000" fill="#fff"/>
  <text font-style="normal" stroke="#000" transform="matrix(15.111212816135316,0,0,21.33807966718708,-3209.7043690090522,-5003.2606571649285) " xml:space="preserve" text-anchor="start" font-family="'League Gothic', sans-serif" font-size="4" id="svg_38" y="248.020805" x="215.236378" fill-opacity="null" stroke-opacity="null" stroke-width="0" fill="#000000">IND - XY - 1234</text>
 </g>
</svg>