<?xml version="1.0" encoding="iso-8859-1"?>
<!-- Generator: Adobe Illustrator 19.0.0, SVG Export Plug-In . SVG Version: 6.00 Build 0)  -->
<svg version="1.1" id="Capa_1" xmlns="http://www.w3.org/2000/svg" xmlns:xlink="http://www.w3.org/1999/xlink" x="0px" y="0px"
	 viewBox="0 0 512.001 512.001" style="enable-background:new 0 0 512.001 512.001;" xml:space="preserve">
<circle style="fill:#78D2FA;" cx="170.095" cy="170.314" r="159.826"/>
<polyline style="fill:#878791;" points="298.677,265.261 334.374,300.958 302.433,332.9 266.932,297.398 "/>
<circle style="fill:#FFFFFF;" cx="170.095" cy="170.314" r="107.882"/>
<path style="fill:#F5B955;" d="M213.642,213.605l-16.813-3.108c-6.726-1.244-11.606-7.109-11.606-13.95v-3.739h-30.291v3.739
	c0,6.84-4.881,12.705-11.606,13.949l-16.805,3.107c-16.309,3.016-28.143,17.239-28.143,33.824v3.468
	c19.062,16.975,44.181,27.294,71.715,27.294c27.523,0,52.634-10.312,71.693-27.275v-3.486
	C241.786,230.844,229.951,216.62,213.642,213.605z"/>
<g>
	<polygon style="fill:#FFCDAC;" points="148.565,208.28 170.087,242.695 191.6,208.28 170.083,195.973 	"/>
	<path style="fill:#FFCDAC;" d="M207.215,135.772v23.069c0,20.508-16.625,37.132-37.132,37.132l0,0l0,0
		c-20.508,0-37.132-16.625-37.132-37.132v-23.069H207.215z"/>
</g>
<g>
	<path style="fill:#FF9155;" d="M170.083,96.998L170.083,96.998c-20.508,0-37.132,16.625-37.132,37.132v8.939h18.155
		c12.069,0,23.518-5.343,31.269-14.594l0,0l24.84,14.594v-8.939C207.215,113.623,190.59,96.998,170.083,96.998z"/>
	<path style="fill:#FF9155;" d="M286,349.334l139.266,139.267c17.429,17.429,45.688,17.429,63.119,0
		c8.713-8.715,13.072-20.136,13.072-31.56c0-11.424-4.356-22.844-13.072-31.56L349.119,286.215L286,349.334z"/>
</g>
<circle style="fill:#D7FA91;" cx="82.191" cy="430.09" r="71.921"/>
<path style="fill:#FF5A5A;" d="M133.407,475.629c0-10.771-7.677-20.012-18.265-21.987l-13.028-2.429l-39.902,0.009l-12.978,2.42
	c-10.588,1.975-18.265,11.216-18.265,21.987v4.933c13.044,13.236,31.171,21.449,51.222,21.449c20.049,0,38.174-8.211,51.217-21.444
	L133.407,475.629L133.407,475.629z"/>
<path style="fill:#FFCDAC;" d="M82.188,396.074L82.188,396.074c-13.47,0-24.39,10.92-24.39,24.39v15.872
	c0,13.47,10.92,24.39,24.39,24.39l0,0c13.47,0,24.39-10.92,24.39-24.39v-15.872C106.577,406.993,95.658,396.074,82.188,396.074z"/>
<circle style="fill:#F5B955;" cx="430.211" cy="81.911" r="71.921"/>
<path style="fill:#A5DC69;" d="M481.431,127.45c0-10.771-7.677-20.012-18.265-21.987l-13.028-2.429l-39.902,0.009l-12.978,2.42
	c-10.588,1.975-18.265,11.216-18.265,21.987v4.933c13.043,13.237,31.17,21.45,51.221,21.45c20.049,0,38.174-8.211,51.217-21.444
	L481.431,127.45L481.431,127.45z"/>
<path style="fill:#FFCDAC;" d="M430.211,47.895L430.211,47.895c-13.47,0-24.39,10.92-24.39,24.39v15.872
	c0,13.47,10.92,24.39,24.39,24.39l0,0c13.47,0,24.39-10.92,24.39-24.39V72.285C454.601,58.815,443.681,47.895,430.211,47.895z"/>
<path d="M170.094,320.145c-5.517,0-9.989,4.472-9.989,9.989c0,5.517,4.472,9.989,9.989,9.989l0.942-0.002
	c5.517-0.037,9.959-4.539,9.922-10.056c-0.037-5.517-4.539-9.975-10.056-9.922L170.094,320.145z"/>
<path d="M287.965,170.309c0-64.994-52.877-117.871-117.871-117.871S52.222,105.315,52.222,170.309S105.1,288.18,170.094,288.18
	S287.965,235.303,287.965,170.309z M72.201,170.309c0-53.979,43.914-97.893,97.893-97.893s97.893,43.914,97.893,97.893
	c0,22.203-7.435,42.699-19.938,59.14c-5.934-12.752-17.752-22.359-32.329-25.054l-16.91-3.126c-1.274-0.235-2.519-1.217-3.072-2.375
	c13.038-8.44,21.69-23.101,21.69-39.755v-15.862v-7.339v-1.651c0-26.101-21.235-47.335-47.335-47.335s-47.335,21.235-47.335,47.335
	v1.651v7.339v15.862c0,16.651,8.65,31.31,21.683,39.75c-0.554,1.167-1.794,2.145-3.075,2.38l-16.901,3.125
	c-14.576,2.695-26.394,12.302-32.328,25.054C79.635,213.007,72.201,192.511,72.201,170.309z M142.737,153.267h8.271
	c12.235,0,23.893-4.348,33.047-12.143l13.396,7.87v10.145c0,15.085-12.273,27.357-27.357,27.357s-27.357-12.273-27.357-27.357
	L142.737,153.267L142.737,153.267z M142.755,133.288c0.527-14.624,12.588-26.358,27.339-26.358c11.763,0,21.817,7.463,25.673,17.903
	l-8.25-4.848c-4.206-2.471-9.583-1.543-12.716,2.197c-5.914,7.057-14.586,11.105-23.793,11.105h-8.253V133.288z M163.139,205.959
	c2.271,0.336,4.592,0.515,6.954,0.515c2.359,0,4.678-0.179,6.945-0.514c0.576,1.459,1.293,2.848,2.131,4.157l-9.074,14.515
	l-9.083-14.524C161.849,208.802,162.564,207.416,163.139,205.959z M108.07,245.989c0.992-10.88,9.107-19.928,20.029-21.948
	l16.191-2.994l17.338,27.726c1.826,2.92,5.027,4.693,8.47,4.693c3.443,0,6.644-1.774,8.47-4.694l17.329-27.723l16.19,2.993
	c10.921,2.019,19.037,11.067,20.029,21.947c-16.899,13.874-38.505,22.213-62.023,22.213S124.968,259.862,108.07,245.989z"/>
<path d="M356.183,279.151c-1.873-1.873-4.414-2.926-7.063-2.926c-2.649,0-5.19,1.053-7.063,2.926l-7.681,7.681l-22.704-22.704
	c17.958-27.115,28.237-59.5,28.237-93.819c0-93.636-76.179-169.815-169.815-169.815S0.279,76.673,0.279,170.309
	c0,37.76,12.132,73.508,35.083,103.378c22.22,28.917,53.686,50.259,88.604,60.094c5.309,1.498,10.827-1.596,12.323-6.907
	c1.495-5.31-1.597-10.827-6.907-12.323C65.13,296.454,20.257,237.14,20.257,170.309c0-82.62,67.217-149.836,149.836-149.836
	S319.93,87.689,319.93,170.309c0,32.79-10.631,63.581-28.985,88.63c-0.229,0.279-0.439,0.567-0.632,0.864
	c-8.063,10.842-17.586,20.584-28.324,28.925c-0.757,0.432-1.473,0.96-2.119,1.606c-0.011,0.011-0.02,0.023-0.031,0.034
	c-15.231,11.398-32.807,20.017-52.084,25.006c-5.341,1.382-8.55,6.833-7.167,12.174c1.166,4.501,5.22,7.489,9.663,7.489
	c0.828,0,1.67-0.104,2.51-0.321c19.428-5.029,37.33-13.311,53.197-24.165l22.349,22.349l-9.37,9.37
	c-3.901,3.901-3.901,10.226,0,14.127l31.341,31.341l0,0c0,0,0,0,0.001,0.001l107.924,107.925
	c10.648,10.648,24.635,15.972,38.622,15.972s27.975-5.324,38.625-15.973c10.316-10.318,15.997-24.035,15.997-38.622
	c0-14.59-5.682-28.306-15.998-38.623L356.183,279.151z M281.874,298.213c6.339-5.548,12.248-11.548,17.679-17.949l20.695,20.695
	l-17.815,17.815L281.874,298.213z M481.322,481.537c-13.507,13.506-35.485,13.507-48.993,0L331.469,380.674l24.495-24.495
	c3.901-3.901,3.902-10.226,0-14.127c-3.902-3.901-10.226-3.901-14.127,0l-24.496,24.495l-17.215-17.215l9.365-9.365
	c0.002-0.002,0.003-0.003,0.005-0.005l31.941-31.941c0.002-0.002,0.003-0.003,0.005-0.005l7.676-7.676L481.32,432.546
	c6.543,6.543,10.146,15.242,10.146,24.495C491.467,466.293,487.864,474.993,481.322,481.537z"/>
<path d="M333.108,60.429h17.67c-1.864,6.851-2.878,14.049-2.878,21.482c0,41.921,31.661,76.566,72.324,81.331v92.066
	c0,5.517,4.472,9.989,9.989,9.989c5.517,0,9.989-4.472,9.989-9.989V163.14c40.274-5.126,71.52-39.586,71.52-81.229
	C511.722,36.745,474.977,0,429.811,0c-30.044,0-56.346,16.269-70.6,40.451h-26.103c-5.517,0-9.989,4.472-9.989,9.989
	S327.591,60.429,333.108,60.429z M444.209,88.156c0,7.94-6.46,14.401-14.401,14.401c-7.941,0-14.401-6.46-14.401-14.401V72.285
	c0-7.941,6.46-14.401,14.401-14.401c7.94,0,14.401,6.46,14.401,14.401V88.156z M406.889,113.753
	c6.087,5.456,14.121,8.782,22.92,8.782c8.799,0,16.833-3.326,22.919-8.782l8.203,1.53c5.857,1.092,10.108,6.209,10.108,12.167v0.624
	c-10.959,9.798-25.406,15.769-41.228,15.769c-15.824,0-30.273-5.972-41.232-15.772v-0.621c0-5.957,4.25-11.075,10.108-12.167
	L406.889,113.753z M429.811,19.978c34.15,0,61.932,27.783,61.932,61.932c0,9.796-2.296,19.063-6.363,27.306
	c-4.719-6.909-12.07-11.948-20.786-13.573l-1.187-0.221c0.506-2.343,0.78-4.773,0.78-7.266V72.285
	c0-18.957-15.422-34.379-34.379-34.379c-18.957,0-34.379,15.422-34.379,34.379v15.872c0,2.493,0.274,4.923,0.78,7.266l-1.187,0.221
	c-8.714,1.625-16.064,6.662-20.784,13.569c-4.066-8.242-6.361-17.508-6.361-27.302C367.879,47.761,395.661,19.978,429.811,19.978z"
	/>
<path d="M430.21,284.075c-2.627,0-5.204,1.069-7.062,2.927c-1.858,1.858-2.927,4.435-2.927,7.062s1.069,5.204,2.927,7.062
	c1.868,1.858,4.435,2.927,7.062,2.927s5.204-1.069,7.062-2.927c1.868-1.858,2.927-4.435,2.927-7.062s-1.059-5.204-2.927-7.062
	C435.414,285.144,432.847,284.075,430.21,284.075z"/>
<path d="M213.291,420.1h-49.822c-4.946-40.468-39.498-71.921-81.279-71.921c-7.613,0-14.977,1.066-21.976,3.019v-21.076
	c0-5.517-4.472-9.989-9.989-9.989s-9.989,4.472-9.989,9.989v29.653C16.325,374.095,0.279,400.25,0.279,430.09
	c0,45.166,36.745,81.911,81.911,81.911c41.782,0,76.334-31.454,81.279-71.921h49.822c5.517,0,9.989-4.472,9.989-9.989
	C223.28,424.573,218.808,420.1,213.291,420.1z M40.957,476.25v-0.62c0-5.957,4.25-11.075,10.107-12.168l8.203-1.529
	c6.087,5.456,14.121,8.782,22.919,8.782s16.833-3.326,22.92-8.782l8.203,1.529c5.857,1.092,10.108,6.209,10.108,12.168v0.624
	c-10.958,9.797-25.406,15.768-41.228,15.768C66.366,492.022,51.916,486.049,40.957,476.25z M96.588,436.335
	c0,7.941-6.46,14.401-14.401,14.401c-7.94,0-14.401-6.46-14.401-14.401v-15.872c0-7.94,6.46-14.401,14.401-14.401
	s14.401,6.46,14.401,14.401V436.335z M137.759,457.396c-4.719-6.909-12.071-11.948-20.786-13.573l-1.187-0.221
	c0.506-2.343,0.78-4.773,0.78-7.266v-15.872c0-18.957-15.422-34.379-34.379-34.379s-34.378,15.422-34.378,34.378v15.872
	c0,2.493,0.274,4.923,0.78,7.266l-1.187,0.221c-8.714,1.625-16.064,6.662-20.784,13.569c-4.066-8.242-6.361-17.508-6.361-27.302
	c0-34.15,27.783-61.932,61.932-61.932s61.932,27.783,61.932,61.932C144.122,439.886,141.827,449.153,137.759,457.396z"/>
<path d="M256,440.078h39.954c5.517,0,9.989-4.472,9.989-9.989c0-5.517-4.472-9.989-9.989-9.989H256
	c-5.517,0-9.989,4.472-9.989,9.989C246.011,435.606,250.483,440.078,256,440.078z"/>
<path d="M208.052,461.991c-5.517,0-9.989,4.472-9.989,9.989c0,5.517,4.472,9.989,9.989,9.989h0.099c5.517,0,9.94-4.472,9.94-9.989
	C218.091,466.463,213.569,461.991,208.052,461.991z"/>
<path d="M255.951,461.991c-5.517,0-9.989,4.472-9.989,9.989c0,5.517,4.472,9.989,9.989,9.989h0.099c5.517,0,9.94-4.472,9.94-9.989
	C265.99,466.463,261.468,461.991,255.951,461.991z"/>
<path d="M303.85,461.991c-5.517,0-9.989,4.472-9.989,9.989c0,5.517,4.472,9.989,9.989,9.989h0.099c5.517,0,9.94-4.472,9.94-9.989
	C313.889,466.463,309.367,461.991,303.85,461.991z"/>
<g>
</g>
<g>
</g>
<g>
</g>
<g>
</g>
<g>
</g>
<g>
</g>
<g>
</g>
<g>
</g>
<g>
</g>
<g>
</g>
<g>
</g>
<g>
</g>
<g>
</g>
<g>
</g>
<g>
</g>
</svg>
